<?xml version="1.0" encoding="utf-8"?>
<!-- Generator: Adobe Illustrator 22.1.0, SVG Export Plug-In . SVG Version: 6.00 Build 0)  -->
<svg version="1.1" id="Layer_1" xmlns="http://www.w3.org/2000/svg" xmlns:xlink="http://www.w3.org/1999/xlink" x="0px" y="0px"
	 viewBox="0 0 2500 2492" style="enable-background:new 0 0 2500 2492;" xml:space="preserve">
<style type="text/css">
	.st0{fill:#0083CA;}
</style>
<g>
	<path class="st0" d="M1211.3,0h77.5c376.9,21.3,645.6,164.4,844.8,364.9c199.2,200.6,346.5,465.1,366.2,843.6v75
		c-19.1,384.5-169,638.3-366.2,844.8c-207.1,196.1-461.7,344.8-846.1,363.7h-76.2c-376.8-21.3-645.6-164.3-844.8-364.9
		C167.2,1926.5,19.9,1662,0.2,1283.5v-75c1-0.3,1.5-1,1.3-2.5c18.8-377,166.9-644.3,364.9-842.3C565.4,164.7,836.9,20.6,1211.3,0
		L1211.3,0z M966.3,178.7c-74.3,19.9-140.8,45.1-201.2,75c-183.7,90.8-335.2,220.8-441.2,387.4C220.5,803.7,131,1012.9,144,1287.2
		c8.2,172.9,47.6,318.4,110,442.4c123.1,244.8,310.5,425.3,569.9,534.9c128.3,54.2,287.2,92.3,466.2,83.7
		c171.7-8.2,320.4-46.8,443.7-108.7c241.5-121.4,431.9-308.8,537.4-567.4c53.4-130.8,93.7-281.9,85-464.9
		c-16.5-346.7-157.5-581.8-343.7-761.1c-92.1-88.7-203-164.2-333.7-218.7c-126.8-52.9-291.9-92.2-468.7-83.7
		C1123.1,147.9,1041.1,158.7,966.3,178.7L966.3,178.7z"/>
	<path class="st0" d="M1135,922.3c39.6,26.2,80.1,51.5,117.5,80c-84.4,53-167.2,107.7-251.2,161.2c12.7,9.7,27.2,17.7,40,27.5
		c84.7-53.6,169.4-107.2,253.7-161.2c37.8,23.4,75.1,47.4,110,73.7c-84.5,53.4-166.2,109.6-250,163.7c12.4,10.1,27.6,17.4,41.2,26.2
		c86.6-53,171-108.1,256.2-162.5V953.6h187.5v353.7c52.9,2.9,111.2,0.4,166.2,1.2v166.2h-353.7V1306
		c-103.9,63.1-210.4,134.5-314.9,201.2c-108.9-70.7-213.8-145.3-322.4-216.2c-31.5,99.8-106.2,174.8-230,183.7
		c-77.2,5.5-164.8-4.1-253.7,0V953.6c111.1,7.4,233.1-14.9,321.2,12.5c77.9,24.2,133.1,86.3,158.7,163.7
		C920.1,1061.5,1027.1,991.4,1135,922.3L1135,922.3z M510.1,1121v187.5c44.7,0.2,78.6,2.8,105-17.5c39.2-30.2,47.1-105.1,12.5-145
		c-23.1-26.6-62.1-32.2-116.2-28.7C509.9,1117.5,510,1119.3,510.1,1121z M1854.9,953.6h187.5v354.9h165v166.2h-353.7V957.3
		C1853.5,955.5,1853.4,953.8,1854.9,953.6L1854.9,953.6z"/>
</g>
</svg>
