<?xml version="1.0" encoding="utf-8"?>
<!-- Generator: Adobe Illustrator 22.1.0, SVG Export Plug-In . SVG Version: 6.00 Build 0)  -->
<svg version="1.1" id="图层_1" xmlns="http://www.w3.org/2000/svg" xmlns:xlink="http://www.w3.org/1999/xlink" x="0px" y="0px"
	 viewBox="0 0 76.5 28.3" style="enable-background:new 0 0 76.5 28.3;" xml:space="preserve">
<g>
	<path d="M46,15.1c0,4.3,3.8,5.7,3.8,5.7c0,0.1-0.6,2-2,4c-1.2,1.7-2.4,3.4-4.3,3.5c-1.9,0-2.5-1.1-4.7-1.1s-2.8,1.1-4.6,1.2
		c-1.9,0.1-3.3-1.9-4.5-3.6c-2.4-3.5-4.3-9.9-1.8-14.3c1.2-2.2,3.5-3.5,5.9-3.6c1.8,0,3.6,1.2,4.7,1.2c1.1,0,3.2-1.5,5.4-1.3
		c0.9,0,3.5,0.4,5.2,2.8C48.9,9.7,46,11.5,46,15.1 M42.4,4.5c1-1.2,1.7-2.9,1.5-4.5c-1.4,0.1-3.2,0.9-4.2,2.1
		c-0.9,1.1-1.7,2.8-1.5,4.4C39.8,6.7,41.4,5.7,42.4,4.5"/>
</g>
</svg>
