<?xml version="1.0" encoding="utf-8"?>
<!-- Generator: Adobe Illustrator 22.1.0, SVG Export Plug-In . SVG Version: 6.00 Build 0)  -->
<svg version="1.1" id="图层_1" xmlns="http://www.w3.org/2000/svg" xmlns:xlink="http://www.w3.org/1999/xlink" x="0px" y="0px"
	 viewBox="0 0 76.5 28.3" style="enable-background:new 0 0 76.5 28.3;" xml:space="preserve">
<style type="text/css">
	.st0{fill:#1B81BF;}
	.st1{fill:#1D81BF;}
	.st2{fill:#8A8C8E;}
	.st3{fill:#4E4D4F;}
</style>
<g>
	<path class="st0" d="M21.2,15.3h1.6v1.4h-3.3v-4.7h1.6V15.3z M15.8,15l-2.7,2.1l-2.5-1.9c-0.4,0.9-1.2,1.5-2.2,1.5H6.3v-4.7h2.1
		c1.1,0,1.9,0.7,2.2,1.5l2.5-1.9l0.9,0.7l-2.3,1.8l0.4,0.3l2.3-1.8l0.9,0.7L13.1,15l0.4,0.3l2.3-1.8v-1.6h1.6v3.3h1.6v1.4h-3.3V15z
		 M9.3,14.3c0-0.6-0.4-1-1-1H7.9v2h0.4C8.8,15.3,9.3,15,9.3,14.3"/>
	<path class="st0" d="M14.5,3.4c-6.1,0-11,4.9-11,11c0,6.1,4.9,11,11,11s11-4.9,11-11C25.4,8.3,20.5,3.4,14.5,3.4 M14.5,24.1
		c-5.4,0-9.8-4.4-9.8-9.8c0-5.4,4.4-9.8,9.8-9.8c5.4,0,9.8,4.4,9.8,9.8C24.2,19.8,19.9,24.1,14.5,24.1"/>
	<path class="st1" d="M70.1,6.1H72c0.7,0,1.3,0.6,1.3,1.5v13.6c0,0.8-0.6,1.5-1.3,1.5h-1.9V6.1z"/>
	<path class="st2" d="M71.8,22.9h-44v-0.3h44c0.8,0,1.5-0.6,1.5-1.3V7.5c0-0.7-0.7-1.3-1.5-1.3h-44V5.9h44c1,0,1.8,0.8,1.8,1.7v13.6
		C73.6,22.1,72.8,22.9,71.8,22.9"/>
	<path class="st3" d="M32.2,12.4h1.5c0.7,0,1.3,0.5,1.3,1.3c0,0.8-0.5,1.3-1.3,1.3h-0.8v1.4h-0.7V12.4z M33.6,14.3
		c0.4,0,0.7-0.3,0.7-0.7c0-0.4-0.2-0.7-0.7-0.7h-0.7v1.3H33.6z"/>
	<path class="st3" d="M36.8,14.5L36.8,14.5L36.8,14.5c0.1-0.4-0.1-0.5-0.4-0.5c-0.4,0-0.8,0.3-0.8,0.3l-0.3-0.5c0,0,0.4-0.4,1.1-0.4
		c0.7,0,1.2,0.4,1.2,1.1v1.8H37v-0.2c0-0.1,0-0.2,0-0.2h0c0,0-0.2,0.5-0.9,0.5c-0.5,0-1-0.3-1-0.9C35.2,14.6,36.4,14.5,36.8,14.5
		 M36.3,15.8c0.4,0,0.6-0.4,0.6-0.7V15h-0.1c-0.4,0-0.9,0.1-0.9,0.4C35.9,15.6,36,15.8,36.3,15.8"/>
	<path class="st3" d="M38.2,13.5h0.7V14c0,0.1,0,0.2,0,0.2h0c0.1-0.4,0.5-0.7,0.9-0.7c0.1,0,0.1,0,0.1,0v0.7c0,0-0.1,0-0.2,0
		c-0.3,0-0.6,0.2-0.8,0.6c0,0.1-0.1,0.3-0.1,0.5v1.1h-0.7V13.5z"/>
	<path class="st3" d="M40.6,14.1h-0.4v-0.6h0.4v-0.8h0.7v0.8H42v0.6h-0.6v1.1c0,0.5,0.4,0.5,0.6,0.5c0.1,0,0.1,0,0.1,0v0.6
		c0,0-0.1,0-0.2,0c-0.4,0-1.2-0.1-1.2-1.1V14.1z"/>
	<path class="st3" d="M42.6,13.5h0.7v0.3c0,0.1,0,0.2,0,0.2h0c0.1-0.2,0.4-0.6,1-0.6c0.6,0,1,0.3,1,1.1v1.8h-0.7v-1.7
		c0-0.3-0.1-0.6-0.4-0.6c-0.4,0-0.7,0.2-0.8,0.6c0,0.1-0.1,0.2-0.1,0.4v1.3h-0.7V13.5z"/>
	<path class="st3" d="M47.1,13.4c0.8,0,1.3,0.6,1.3,1.3c0,0.1,0,0.3,0,0.3h-2c0,0.5,0.4,0.8,0.9,0.8c0.5,0,0.8-0.3,0.8-0.3l0.3,0.5
		c0,0-0.4,0.4-1.1,0.4c-0.9,0-1.5-0.7-1.5-1.5C45.7,14,46.3,13.4,47.1,13.4 M47.7,14.5c0-0.4-0.3-0.6-0.6-0.6
		c-0.4,0-0.6,0.2-0.7,0.6H47.7z"/>
	<path class="st3" d="M48.9,13.5h0.7V14c0,0.1,0,0.2,0,0.2h0c0.1-0.4,0.5-0.7,0.9-0.7c0.1,0,0.1,0,0.1,0v0.7c0,0-0.1,0-0.2,0
		c-0.3,0-0.6,0.2-0.8,0.6c0,0.1-0.1,0.3-0.1,0.5v1.1h-0.7V13.5z"/>
	<path class="st3" d="M51.3,12.4h1.3c1.2,0,2,0.7,2,2s-0.8,2-2,2h-1.3V12.4z M52.6,15.7c0.8,0,1.3-0.5,1.3-1.4
		c0-0.9-0.5-1.4-1.3-1.4H52v2.7H52.6z"/>
	<path class="st3" d="M55.2,12.4h0.7V13h-0.7V12.4z M55.2,13.5h0.7v2.8h-0.7V13.5z"/>
	<path class="st3" d="M56.5,13.5h0.7V14c0,0.1,0,0.2,0,0.2h0c0.1-0.4,0.5-0.7,0.9-0.7c0.1,0,0.1,0,0.1,0v0.7c0,0-0.1,0-0.2,0
		c-0.3,0-0.6,0.2-0.8,0.6c0,0.1-0.1,0.3-0.1,0.5v1.1h-0.7V13.5z"/>
	<path class="st3" d="M59.9,13.4c0.8,0,1.3,0.6,1.3,1.3c0,0.1,0,0.3,0,0.3h-2c0,0.5,0.4,0.8,0.9,0.8c0.5,0,0.8-0.3,0.8-0.3l0.3,0.5
		c0,0-0.4,0.4-1.1,0.4c-0.9,0-1.5-0.7-1.5-1.5C58.4,14,59,13.4,59.9,13.4 M60.4,14.5c0-0.4-0.3-0.6-0.6-0.6c-0.4,0-0.6,0.2-0.7,0.6
		H60.4z"/>
	<path class="st3" d="M63,13.4c0.7,0,1.1,0.4,1.1,0.4l-0.3,0.5c0,0-0.3-0.3-0.7-0.3c-0.5,0-0.9,0.4-0.9,0.9c0,0.5,0.3,0.9,0.9,0.9
		c0.5,0,0.8-0.4,0.8-0.4l0.3,0.5c0,0-0.4,0.5-1.2,0.5c-0.9,0-1.5-0.7-1.5-1.5C61.5,14.1,62.1,13.4,63,13.4"/>
	<path class="st3" d="M64.8,14.1h-0.4v-0.6h0.4v-0.8h0.7v0.8h0.6v0.6h-0.6v1.1c0,0.5,0.4,0.5,0.6,0.5c0.1,0,0.1,0,0.1,0v0.6
		c0,0-0.1,0-0.2,0c-0.4,0-1.2-0.1-1.2-1.1V14.1z"/>
</g>
</svg>
