<?xml version="1.0" encoding="utf-8"?>
<!-- Generator: Adobe Illustrator 22.1.0, SVG Export Plug-In . SVG Version: 6.00 Build 0)  -->
<svg version="1.1" id="图层_1" xmlns="http://www.w3.org/2000/svg" xmlns:xlink="http://www.w3.org/1999/xlink" x="0px" y="0px"
	 viewBox="0 0 76.5 28.3" style="enable-background:new 0 0 76.5 28.3;" xml:space="preserve">
<style type="text/css">
	.st0{fill:#E22026;}
	.st1{fill:#E63331;}
	.st2{fill:#FFFFFF;}
	.st3{font-family:'Roboto-Medium';}
	.st4{font-size:4.2663px;}
	.st5{font-size:2.9963px;}
</style>
<g>
	<polygon class="st0" points="22.8,1.3 22.8,22.6 53.7,8.9 53.7,1.3 	"/>
	<polygon class="st1" points="22.8,22.6 22.8,27 39.4,27 53.7,21.1 53.7,8.9 	"/>
	<rect x="46.8" y="1.3" width="6.9" height="19.6"/>
	<g>
		<path id="n_1_" class="st2" d="M49.4,12.8c0,0.3,0.1,0.6,0.4,0.8l0,0l0,0h-0.4v0.7h2.5v-0.7h-1.4c-0.3,0-0.5-0.2-0.5-0.6
			c0-0.3,0.2-0.6,0.5-0.6h1.4v-0.7h-1.5C49.8,11.8,49.4,12.2,49.4,12.8z"/>
		<polygon id="v" class="st2" points="49.4,7 51.1,7.6 49.4,8.2 49.4,9 51.9,7.9 51.9,7.2 49.4,6.2 		"/>
		<path id="e_1_" class="st2" d="M49.8,14.8c-0.3,0.2-0.4,0.6-0.4,1c0,0.7,0.5,1.3,1.3,1.3c0.7,0,1.3-0.6,1.3-1.4
			c0-0.5-0.2-0.9-0.5-1.1L51.1,15c0.2,0.3,0.3,0.4,0.3,0.7c0,0.2-0.1,0.4-0.2,0.5l-0.7-1.7C50.2,14.5,50,14.6,49.8,14.8z M50.7,16.4
			c-0.3,0-0.5,0-0.6-0.1c-0.2-0.1-0.2-0.3-0.2-0.5c0-0.2,0.1-0.4,0.3-0.5L50.7,16.4z"/>
		<polygon id="l_1_" class="st2" points="48.7,18.7 48.7,19.3 51.9,19.3 51.9,17.1 51.2,17.1 51.2,18.7 		"/>
		<path id="o_4_" class="st2" d="M49.4,5c0,0.7,0.6,1.3,1.3,1.3c0.7,0,1.3-0.6,1.3-1.3c0-0.7-0.6-1.3-1.3-1.3
			C49.9,3.6,49.4,4.2,49.4,5z M51.3,5c0,0.4-0.3,0.7-0.7,0.7c-0.4,0-0.7-0.3-0.7-0.6c0-0.4,0.3-0.7,0.7-0.7C51,4.3,51.3,4.6,51.3,5z
			"/>
		<path id="o_3_" class="st2" d="M49.4,10.2c0,0.7,0.6,1.3,1.3,1.3c0.7,0,1.3-0.6,1.3-1.3c0-0.7-0.6-1.3-1.3-1.3
			C49.9,8.8,49.4,9.4,49.4,10.2z M51.3,10.2c0,0.4-0.3,0.7-0.7,0.7c-0.4,0-0.7-0.3-0.7-0.6c0-0.4,0.3-0.7,0.7-0.7
			C51,9.5,51.3,9.8,51.3,10.2z"/>
		<polygon id="t" class="st2" points="51.6,3.7 51.6,3.5 51.9,3.5 51.9,3.5 51.6,3.5 51.6,3.4 51.5,3.4 51.5,3.7 		"/>
		<polygon id="m_1_" class="st2" points="51.5,3 51.7,3.1 51.5,3.2 51.5,3.3 51.9,3.3 51.9,3.2 51.6,3.2 51.8,3.1 51.8,3.1 51.6,3 
			51.9,3 51.9,2.9 51.5,2.9 		"/>
	</g>
	<text transform="matrix(1 0 0 1 23.98 5.4541)"><tspan x="0" y="0" class="st2 st3 st4">Business</tspan><tspan x="0" y="3.7" class="st2 st3 st4">Partner</tspan></text>
	<text transform="matrix(1 0 0 1 24.104 24.8135)" class="st2 st3 st5">Classic</text>
</g>
</svg>
