<?xml version="1.0" encoding="utf-8"?>
<!-- Generator: Adobe Illustrator 22.1.0, SVG Export Plug-In . SVG Version: 6.00 Build 0)  -->
<svg version="1.1" id="图层_1" xmlns="http://www.w3.org/2000/svg" xmlns:xlink="http://www.w3.org/1999/xlink" x="0px" y="0px"
	 viewBox="0 0 76.5 28.3" style="enable-background:new 0 0 76.5 28.3;" xml:space="preserve">
<style type="text/css">
	.st0{fill:#7B878D;}
</style>
<g>
	<path class="st0" d="M23.8,22.2h5.7V24h-7.9V11.3h2.2V22.2z"/>
	<path class="st0" d="M31.5,12.1c0-0.3,0.1-0.6,0.3-0.8c0.2-0.2,0.5-0.3,0.9-0.3c0.4,0,0.7,0.1,0.9,0.3c0.2,0.2,0.3,0.5,0.3,0.8
		c0,0.3-0.1,0.6-0.3,0.8c-0.2,0.2-0.5,0.3-0.9,0.3c-0.4,0-0.7-0.1-0.9-0.3C31.6,12.7,31.5,12.4,31.5,12.1z M33.7,24h-2.1v-9.4h2.1
		V24z"/>
	<path class="st0" d="M38.4,14.6l0.1,1.1c0.7-0.8,1.6-1.3,2.7-1.3c2,0,3,1.1,3,3.4V24h-2.1v-6.1c0-0.6-0.1-1-0.4-1.3
		c-0.3-0.3-0.7-0.4-1.3-0.4c-0.9,0-1.5,0.4-1.9,1.2V24h-2.1v-9.4H38.4z"/>
	<path class="st0" d="M49.9,19.9l-0.9,1V24h-2.1V10.6h2.1v7.7l0.7-0.8l2.6-2.9h2.5l-3.5,3.9l3.9,5.5h-2.4L49.9,19.9z"/>
	<path class="st0" d="M59.1,24h-2.2V11.3h2.2V24z"/>
	<path class="st0" d="M71.1,13.1h-3.9V24H65V13.1h-3.9v-1.8h10V13.1z"/>
</g>
<polygon class="st0" points="18.2,3.7 6.9,3.7 5.2,3.7 5.2,3.7 5.2,5.3 5.2,5.3 5.2,15.4 5.2,15.4 5.2,17 5.2,17 6.9,17 11.7,17 
	11.7,15.4 6.9,15.4 6.9,5.3 18.2,5.3 18.2,15.4 15.5,15.4 15.5,17 18.2,17 19.8,17 19.8,15.4 19.8,5.3 19.8,3.7 "/>
<polygon class="st0" points="0,11.7 0,23 0,24.7 0,24.7 1.8,24.7 1.8,24.7 12.8,24.7 12.8,24.7 14.6,24.7 14.6,24.7 14.6,23 
	14.6,18.2 12.8,18.2 12.8,23 1.8,23 1.8,11.7 12.8,11.7 12.8,14.4 14.6,14.4 14.6,11.7 14.6,10.1 12.8,10.1 1.8,10.1 0,10.1 "/>
<g>
	<path class="st0" d="M73.2,10.6c0-0.3,0.1-0.6,0.2-0.9C73.5,9.4,73.7,9.2,74,9c0.3-0.2,0.5-0.2,0.9-0.2c0.3,0,0.6,0.1,0.8,0.2
		c0.3,0.2,0.5,0.4,0.6,0.6c0.1,0.3,0.2,0.6,0.2,0.9c0,0.3-0.1,0.6-0.2,0.9c-0.1,0.3-0.4,0.5-0.6,0.7s-0.5,0.2-0.9,0.2
		c-0.3,0-0.6-0.1-0.9-0.2c-0.3-0.2-0.5-0.4-0.6-0.6C73.2,11.2,73.2,10.9,73.2,10.6z M76.2,10.6c0-0.3-0.1-0.5-0.2-0.7
		c-0.1-0.2-0.3-0.4-0.5-0.5c-0.2-0.1-0.5-0.2-0.7-0.2c-0.3,0-0.5,0.1-0.7,0.2c-0.2,0.1-0.4,0.3-0.5,0.5c-0.1,0.2-0.2,0.5-0.2,0.7
		c0,0.3,0.1,0.5,0.2,0.7c0.1,0.2,0.3,0.4,0.5,0.5c0.2,0.1,0.5,0.2,0.7,0.2c0.3,0,0.5-0.1,0.7-0.2c0.2-0.1,0.4-0.3,0.5-0.5
		C76.2,11.1,76.2,10.8,76.2,10.6z M74.5,10.8v0.8h-0.4v-2h0.7c0.2,0,0.4,0.1,0.6,0.2c0.1,0.1,0.2,0.3,0.2,0.5c0,0.2-0.1,0.3-0.3,0.4
		c0.1,0,0.2,0.1,0.2,0.2c0,0.1,0.1,0.2,0.1,0.3c0,0.1,0,0.2,0,0.3c0,0.1,0,0.1,0,0.1v0h-0.4c0-0.1,0-0.2,0-0.5c0-0.1,0-0.2-0.1-0.3
		c-0.1-0.1-0.1-0.1-0.3-0.1H74.5z M74.5,10.4h0.3c0.1,0,0.2,0,0.3-0.1c0.1,0,0.1-0.1,0.1-0.2c0-0.1,0-0.2-0.1-0.2
		c-0.1,0-0.2-0.1-0.3-0.1h-0.3V10.4z"/>
</g>
</svg>
