<?xml version="1.0" encoding="utf-8"?>
<!-- Generator: Adobe Illustrator 22.1.0, SVG Export Plug-In . SVG Version: 6.00 Build 0)  -->
<svg version="1.1" id="图层_1" xmlns="http://www.w3.org/2000/svg" xmlns:xlink="http://www.w3.org/1999/xlink" x="0px" y="0px"
	 viewBox="0 0 76.5 28.3" style="enable-background:new 0 0 76.5 28.3;" xml:space="preserve">
<style type="text/css">
	.st0{fill:#7B878D;}
</style>
<g>
	<path class="st0" d="M22.9,22.9c-1.8,0-3.2-1.4-3.2-3.2h-2.8c0,3.3,2.7,5.9,6,5.9s6-2.6,6-5.9h-2.8C26.1,21.5,24.7,22.9,22.9,22.9
		 M28.8,10V7.8h-3.9c-0.6-0.2-1.3-0.3-2-0.3c-3.4,0-6,2.6-6,5.9c0,3.3,2.7,5.9,6,5.9s6-2.6,6-5.9c0-1.1-0.3-2.2-0.9-3.1L28.8,10z
		 M22.9,16.6c-1.8,0-3.2-1.4-3.2-3.2c0-1.8,1.4-3.2,3.2-3.2c1.8,0,3.2,1.4,3.2,3.2C26.1,15.2,24.7,16.6,22.9,16.6 M0,18.9h2.8V3.1H0
		V18.9z M9.9,7.4c-3.4,0-6,2.6-6,5.9c0,3.3,2.7,5.9,6,5.9c3.4,0,6-2.6,6-5.9C15.9,10,13.3,7.4,9.9,7.4 M9.9,16.6
		c-1.8,0-3.2-1.4-3.2-3.2c0-1.8,1.4-3.2,3.2-3.2c1.8,0,3.2,1.4,3.2,3.2C13.1,15.2,11.7,16.6,9.9,16.6 M30,18.9h2.8V7.8H30V18.9z
		 M58.7,10.1c1.2,0,2.1,0.6,2.9,1.5l1.9-1.9c-1.1-1.4-2.8-2.2-4.8-2.2c-3.4,0-6,2.6-6,5.9c0,3.3,2.7,5.9,6,5.9c2,0,3.7-0.9,4.8-2.2
		l-1.9-1.9c-0.7,0.8-1.7,1.5-2.9,1.5c-1.8,0-3.2-1.4-3.2-3.2C55.5,11.5,56.9,10.1,58.7,10.1 M75.9,6.5c0-0.2-0.2-0.3-0.4-0.3h-0.3v1
		h0.1V6.8h0.2l0.2,0.4H76l-0.3-0.4C75.9,6.7,75.9,6.6,75.9,6.5 M75.4,6.6V6.3h0.2c0.2,0,0.2,0.1,0.2,0.2c0,0.1-0.1,0.2-0.2,0.2H75.4
		z M70.6,7.4c-1.4,0-2.5,0.5-3.4,1.4V3.1h-2.8v15.9h2.8v-6.1c0-1.6,1-2.7,2.7-2.7c1.6,0,2.5,1,2.5,2.7v6.1h2.8v-6.6
		C75.2,9.3,73.3,7.4,70.6,7.4 M46,7.4c-3.3,0-5.9,2.6-5.9,6c0,3.4,2.3,5.8,5.9,5.8c2,0,3.8-0.7,5.1-2.1l-1.9-1.8
		c-0.9,0.9-1.9,1.5-3.2,1.5c-1.5,0-2.7-0.9-3.1-2.3h8.7v-0.7C51.7,10,49.4,7.4,46,7.4 M43,12.2c0.4-1.5,1.5-2.3,3-2.3
		c1.5,0,2.5,0.8,2.9,2.3H43z M75.6,5.7c-0.5,0-1,0.4-1,1c0,0.5,0.4,1,1,1c0.5,0,1-0.4,1-1C76.5,6.1,76.1,5.7,75.6,5.7 M75.6,7.5
		c-0.5,0-0.8-0.4-0.8-0.8c0-0.5,0.4-0.8,0.8-0.8c0.5,0,0.8,0.4,0.8,0.8C76.4,7.1,76,7.5,75.6,7.5 M31.4,2.8c-1,0-1.8,0.8-1.8,1.8
		c0,1,0.8,1.8,1.8,1.8c1.1,0,1.9-0.8,1.9-1.8C33.2,3.6,32.4,2.8,31.4,2.8 M38.3,4.3h-2.8v3.4H34v2.5h1.5v8.7h2.8v-8.7h1.5V7.8h-1.5
		V4.3z"/>
</g>
</svg>
