<?xml version="1.0" encoding="utf-8"?>
<!-- Generator: Adobe Illustrator 22.1.0, SVG Export Plug-In . SVG Version: 6.00 Build 0)  -->
<svg version="1.1" id="图层_1" xmlns="http://www.w3.org/2000/svg" xmlns:xlink="http://www.w3.org/1999/xlink" x="0px" y="0px"
	 viewBox="0 0 76.5 28.3" style="enable-background:new 0 0 76.5 28.3;" xml:space="preserve">
<style type="text/css">
	.st0{fill:#7B878D;}
</style>
<g>
	<path class="st0" d="M0,6h7.8c0,2.6,0,5.2,0,7.8c-2.6,0-5.2,0-7.8,0V6L0,6z"/>
	<path class="st0" d="M8.6,6h7.8c0,2.6,0,5.2,0,7.8c-2.6,0-5.2,0-7.8,0C8.6,11.2,8.6,8.6,8.6,6L8.6,6z"/>
	<path class="st0" d="M34.1,9.1C34.4,9,34.8,9.1,35,9.4c0.3,0.3,0.3,0.8,0.1,1.1C34.9,10.9,34.5,11,34,11c-0.4-0.1-0.8-0.5-0.8-0.9
		C33.2,9.5,33.6,9.1,34.1,9.1L34.1,9.1z"/>
	<path class="st0" d="M21.2,9.3c0.8,0,1.6,0,2.4,0c0.8,1.9,1.5,3.9,2.3,5.8c0.2,0.5,0.4,1,0.6,1.5c1-2.4,2-4.8,2.9-7.2
		c0.8,0,1.6,0,2.4,0c0,3.3,0,6.5,0,9.8c-0.6,0-1.1,0-1.7,0c0-2.4,0-4.8,0-7.2c0-0.1,0-0.2,0-0.3c0,0.1-0.1,0.1-0.1,0.2
		c-1,2.5-2,4.9-2.9,7.4c-0.4,0-0.8,0-1.2,0c-1-2.5-2-4.9-3-7.4c0-0.1-0.1-0.1-0.1-0.1c0,1.1,0,2.1,0,3.2c0,1.5,0,2.9,0,4.4
		c-0.5,0-1.1,0-1.6,0C21.2,15.8,21.2,12.5,21.2,9.3L21.2,9.3z"/>
	<path class="st0" d="M38.7,12c0.8-0.2,1.7-0.2,2.5,0c0.2,0,0.3,0.1,0.5,0.2c0,0.5,0,1.1,0,1.6c-0.5-0.4-1.2-0.7-1.9-0.6
		c-0.5,0-1.1,0.3-1.4,0.8c-0.4,0.5-0.5,1.3-0.4,1.9c0.1,0.5,0.3,1,0.7,1.4c0.4,0.4,1,0.5,1.6,0.5c0.5-0.1,1.1-0.3,1.5-0.6
		c0,0.5,0,1,0,1.5c-0.7,0.4-1.5,0.5-2.3,0.5c-0.8,0-1.6-0.3-2.2-0.9c-0.6-0.6-1-1.5-1-2.4c0-0.9,0.1-1.9,0.7-2.6
		C37.3,12.7,38,12.3,38.7,12L38.7,12z"/>
	<path class="st0" d="M57.1,11.9c0.8-0.1,1.6,0,2.3,0.2c0,0.5,0,1,0,1.5c-0.5-0.4-1.1-0.5-1.8-0.5c-0.3,0-0.7,0.1-0.8,0.4
		c-0.1,0.3,0,0.7,0.2,0.9c0.5,0.3,1,0.5,1.5,0.7c0.4,0.2,0.8,0.5,1,0.9c0.4,0.8,0.2,1.8-0.4,2.4c-0.6,0.6-1.5,0.7-2.3,0.7
		c-0.6,0-1.2-0.2-1.7-0.4c0-0.5,0-1.1,0-1.6c0.5,0.3,1,0.6,1.5,0.7c0.4,0.1,0.8,0.1,1.2-0.1c0.3-0.2,0.4-0.7,0.2-1
		c-0.2-0.2-0.5-0.4-0.7-0.5c-0.5-0.2-1-0.4-1.5-0.7c-0.3-0.2-0.5-0.6-0.6-1c-0.1-0.6-0.1-1.2,0.2-1.7C55.8,12.4,56.4,12.1,57.1,11.9
		L57.1,11.9z"/>
	<path class="st0" d="M45.5,12.2c0.5-0.3,1.1-0.3,1.6-0.1c0,0.6,0,1.1,0,1.7c-0.3-0.2-0.7-0.3-1.1-0.3c-0.5,0.1-0.9,0.4-1.1,0.8
		c-0.2,0.4-0.3,0.9-0.2,1.4c0,1.1,0,2.2,0,3.4c-0.6,0-1.1,0-1.7,0c0-2.3,0-4.7,0-7c0.6,0,1.1,0,1.7,0c0,0.4,0,0.8,0,1.2
		C44.8,12.8,45.1,12.4,45.5,12.2L45.5,12.2z"/>
	<path class="st0" d="M33.4,12.1c0.6,0,1.1,0,1.7,0c0,2.3,0,4.7,0,7c-0.6,0-1.1,0-1.7,0C33.4,16.7,33.4,14.4,33.4,12.1L33.4,12.1z"
		/>
	<path class="st0" d="M54,13.7c-0.3-0.6-0.8-1.2-1.5-1.5c-0.7-0.3-1.6-0.4-2.4-0.3c-0.8,0.1-1.7,0.5-2.2,1.2
		c-0.5,0.6-0.7,1.4-0.8,2.1c-0.1,0.9,0.1,1.9,0.6,2.6c0.5,0.7,1.2,1.1,1.9,1.3c0.6,0.1,1.3,0.1,2,0c0.8-0.2,1.5-0.6,1.9-1.2
		c0.5-0.6,0.7-1.3,0.7-2C54.4,15.2,54.3,14.4,54,13.7z M52.4,16.9c-0.2,0.4-0.5,0.7-0.8,0.8c-0.4,0.2-0.9,0.2-1.4,0.1
		c-0.5-0.1-0.8-0.4-1.1-0.9c-0.3-0.5-0.3-1.2-0.3-1.8c0.1-0.5,0.2-1.1,0.6-1.5c0.3-0.3,0.7-0.4,1.1-0.4c0.5,0,1,0.1,1.4,0.5
		c0.4,0.4,0.5,0.9,0.6,1.5C52.6,15.8,52.6,16.4,52.4,16.9z"/>
	<path class="st0" d="M67.5,13.9c-0.3-0.7-0.8-1.3-1.4-1.6c-0.8-0.4-1.7-0.4-2.5-0.3c-0.7,0.1-1.3,0.3-1.9,0.8
		c-0.6,0.5-1,1.3-1.1,2.2c-0.1,0.8-0.1,1.7,0.3,2.4c0.3,0.7,0.9,1.4,1.7,1.7c0.7,0.3,1.6,0.3,2.4,0.2c0.8-0.1,1.6-0.6,2.1-1.2
		c0.5-0.7,0.8-1.5,0.8-2.4C67.7,15,67.7,14.4,67.5,13.9z M66,16.3c-0.1,0.4-0.2,0.7-0.4,1c-0.2,0.3-0.6,0.5-1,0.5
		c-0.4,0.1-0.8,0-1.2-0.1c-0.4-0.2-0.7-0.5-0.9-0.9c-0.2-0.5-0.2-1-0.2-1.5c0-0.5,0.2-1,0.5-1.4c0.3-0.4,0.8-0.6,1.2-0.6
		c0.5,0,1,0.1,1.3,0.4c0.3,0.3,0.5,0.7,0.6,1.1C66,15.3,66,15.8,66,16.3z"/>
	<path class="st0" d="M76.5,13.4V12c-0.6,0-1.1,0-1.7,0c0-0.7,0-1.4,0-2.1c-0.6,0.2-1.1,0.3-1.7,0.5c0,0.5,0,1.1,0,1.6
		c-0.8,0-1.6,0-2.5,0c0-0.4,0-0.8,0-1.3c0-0.3,0.2-0.7,0.6-0.8c0.4-0.2,0.9-0.1,1.2,0.1c0-0.5,0-1,0-1.4c-0.8-0.2-1.7-0.2-2.5,0.3
		c-0.5,0.3-0.8,0.8-0.9,1.3c-0.2,0.6-0.1,1.2-0.1,1.8c-0.4,0-0.8,0-1.2,0c0,0.4,0,0.9,0,1.3c0.4,0,0.8,0,1.2,0c0,1.9,0,3.8,0,5.7
		c0.6,0,1.1,0,1.7,0c0-1.9,0-3.8,0-5.7c0.8,0,1.6,0,2.5,0c0,1.2,0,2.4,0,3.6c0,0.6,0.1,1.2,0.5,1.6c0.3,0.4,0.8,0.6,1.3,0.6
		c0.5,0,1.1,0,1.5-0.2v-1.4c-0.4,0.2-0.9,0.3-1.3,0.1c-0.2-0.1-0.3-0.4-0.4-0.7c-0.1-0.4,0-0.9,0-1.3c0-0.8,0-1.6,0-2.4
		C75.4,13.4,76,13.4,76.5,13.4z"/>
	<path class="st0" d="M0,14.6c2.6,0,5.2,0,7.8,0c0,2.6,0,5.2,0,7.8H0V14.6L0,14.6z"/>
	<path class="st0" d="M8.6,14.6c2.6,0,5.2,0,7.8,0c0,2.6,0,5.2,0,7.8H8.6C8.6,19.8,8.6,17.2,8.6,14.6L8.6,14.6z"/>
</g>
</svg>
